<?xml version="1.0" encoding="utf-8"?>
<!-- Generator: Adobe Illustrator 18.0.0, SVG Export Plug-In . SVG Version: 6.00 Build 0)  -->
<!DOCTYPE svg PUBLIC "-//W3C//DTD SVG 1.1//EN" "http://www.w3.org/Graphics/SVG/1.1/DTD/svg11.dtd">
<svg version="1.1" id="Capa_1" zoomAndPan="disable"
	 xmlns="http://www.w3.org/2000/svg" xmlns:xlink="http://www.w3.org/1999/xlink" x="0px" y="0px" viewBox="0 0 500 500"
	 enable-background="new 0 0 500 500" xml:space="preserve">
<line fill="none" x1="0" y1="0" x2="500" y2="500"/>
<line fill="none" x1="0" y1="60" x2="440" y2="500"/>
<line fill="none" x1="0" y1="120" x2="380" y2="500"/>
<line fill="none" x1="0" y1="180" x2="320" y2="500"/>
<line fill="none" x1="0" y1="240" x2="260" y2="500"/>
<line fill="none" x1="0" y1="300" x2="200" y2="500"/>
<line fill="none" x1="0" y1="360" x2="140" y2="500"/>
<line fill="none" x1="0" y1="420" x2="80" y2="500"/>
<line fill="none" x1="0.5" y1="79.5" x2="80" y2="0"/>
<line fill="none" x1="0.5" y1="139.5" x2="105.1" y2="34.9"/>
<line fill="none" x1="0" y1="200" x2="166.8" y2="33.2"/>
<line fill="none" x1="0" y1="260" x2="263.6" y2="-3.6"/>
<line fill="none" x1="0.5" y1="319.5" x2="237.4" y2="87.4"/>
<line fill="none" x1="0" y1="381.5" x2="310.8" y2="69.2"/>
<line fill="none" x1="0" y1="441.4" x2="391.8" y2="48.2"/>
<line fill="none" x1="0" y1="500" x2="344.5" y2="155.5"/>
<line fill="none" x1="55.3" y1="500" x2="399.8" y2="155.5"/>
<line fill="none" x1="110.7" y1="500" x2="455.2" y2="155.5"/>
<line fill="none" x1="166" y1="500" x2="373.4" y2="292.6"/>
<line fill="none" x1="221.3" y1="500" x2="428.7" y2="292.6"/>
<line fill="none" x1="276.7" y1="500" x2="439.8" y2="336.9"/>
<line fill="none" x1="332" y1="500" x2="495.1" y2="336.9"/>
<line fill="none" x1="387.3" y1="500" x2="467.9" y2="419.5"/>
<line fill="none" x1="442.7" y1="500" x2="499.7" y2="443"/>
</svg>
